<svg version="1.1" id="Layer_1" xmlns="http://www.w3.org/2000/svg" xmlns:xlink="http://www.w3.org/1999/xlink" viewBox="0 0 32.00 32.00" xml:space="preserve" width="228px" height="228px" fill="#eff312" transform="matrix(1, 0, 0, 1, 0, 0)"><g id="SVGRepo_bgCarrier" stroke-width="0"></g><g id="SVGRepo_tracerCarrier" stroke-linecap="round" stroke-linejoin="round" stroke="#CCCCCC" stroke-width="2.944"> <line style="fill:none;stroke:#08dbf7;stroke-width:1.536;stroke-miterlimit:10;" x1="3" y1="13" x2="3" y2="24"></line> <circle cx="3" cy="24" r="2"></circle> <polygon style="fill:none;stroke:#08dbf7;stroke-width:1.536;stroke-miterlimit:10;" points="16,8.833 3.5,13 16,17.167 28.5,13 "></polygon> <path style="fill:none;stroke:#08dbf7;stroke-width:1.536;stroke-miterlimit:10;" d="M7,14.451V20c0,1.657,4.029,3,9,3s9-1.343,9-3 v-5.549"></path> </g><g id="SVGRepo_iconCarrier"> <line style="fill:none;stroke:#08dbf7;stroke-width:1.536;stroke-miterlimit:10;" x1="3" y1="13" x2="3" y2="24"></line> <circle cx="3" cy="24" r="2"></circle> <polygon style="fill:none;stroke:#08dbf7;stroke-width:1.536;stroke-miterlimit:10;" points="16,8.833 3.5,13 16,17.167 28.5,13 "></polygon> <path style="fill:none;stroke:#08dbf7;stroke-width:1.536;stroke-miterlimit:10;" d="M7,14.451V20c0,1.657,4.029,3,9,3s9-1.343,9-3 v-5.549"></path> </g></svg>